<svg version="1.1" xmlns="http://www.w3.org/2000/svg" xmlns:xlink="http://www.w3.org/1999/xlink" x="0px" y="0px"
     viewBox="0 0 27 36.7" enable-background="new 0 0 27 36.7" xml:space="preserve">
<path fill="#FFFFFF" d="M3.7,35.3L3.7,35.3l2.3-5.6h1v6.7H6.3v-5.8h0l-2.4,5.8H3.5l-2.4-5.8h0v5.8H0.4v-6.7h1L3.7,35.3z M9.5,35.9
	h3.6v0.6H8.8v-6.7h4.2v0.6H9.5v2.3h3.3v0.6H9.5V35.9z M19.2,35.5L19.2,35.5l0-5.7h0.7v6.7H19l-3.9-5.8h0v5.8h-0.7v-6.7h0.9
	L19.2,35.5z M24.1,36.7c-0.5,0-0.9-0.1-1.2-0.3c-0.3-0.2-0.6-0.4-0.8-0.7c-0.2-0.3-0.3-0.6-0.4-0.9s-0.1-0.6-0.1-0.9v-4.2h0.7v4.1
	c0,0.3,0,0.5,0.1,0.8c0.1,0.3,0.2,0.5,0.3,0.7c0.1,0.2,0.3,0.4,0.6,0.5c0.2,0.1,0.5,0.2,0.9,0.2c0.3,0,0.6-0.1,0.9-0.2
	c0.2-0.1,0.4-0.3,0.6-0.5c0.1-0.2,0.2-0.4,0.3-0.7c0.1-0.3,0.1-0.5,0.1-0.8v-4.1h0.7V34c0,0.3,0,0.6-0.1,0.9s-0.2,0.6-0.4,0.9
	c-0.2,0.3-0.4,0.5-0.8,0.7C25.1,36.6,24.6,36.7,24.1,36.7z M0,0v5h27V0H0z M0,14h27V9H0V14z M0,23h27v-5H0V23z"/>
</svg>
