<svg version="1.1" xmlns="http://www.w3.org/2000/svg" xmlns:xlink="http://www.w3.org/1999/xlink" x="0px" y="0px"
	 viewBox="0 0 310.9 314.1" enable-background="new 0 0 310.9 314.1" xml:space="preserve">
<g>
	<g>
		<path d="M114.2,93.2c4.5-2.5,6.1-8.1,3.6-12.5L76,4.8C73.6,0.3,68-1.3,63.5,1.1L47,10.2l50.7,92.2L114.2,93.2z"/>
		<path d="M88.6,107.5L38.1,15.3c0,0-14.8,7.3-21.2,13.7C9.9,36,0.2,48.1,0,68.4c-0.2,21.1-0.3,73.3,92.1,166.1
			c75.2,75.5,132,79.5,148.4,79.6c17.4,0,31.6-6,40.8-15.2c6.7-6.7,14.4-22.4,14.4-22.4l-91.9-52.1c0,0-3.1,5.4-5.1,8.8
			c-2.2,3.7-6.4,5.1-9.8,1.6L77.5,121.6c-1.9-2.1-1.5-7,2.6-9.3L88.6,107.5z"/>
		<path d="M309.7,250.7c2.5-4.4,0.9-10.1-3.5-12.6l-75.5-42.7c-4.4-2.5-10.1-0.9-12.6,3.5l-9.3,16.4l91.8,52L309.7,250.7z"/>
	</g>
</g>
</svg>
