<svg version="1.1" xmlns="http://www.w3.org/2000/svg" xmlns:xlink="http://www.w3.org/1999/xlink" x="0px" y="0px"
	 viewBox="0 0 114.1 114.1" enable-background="new 0 0 114.1 114.1" xml:space="preserve">
<path fill="#010202" d="M86.4,8.6L79,1.2c-1.6-1.6-4.1-1.6-5.7,0L59.2,15.2c0.1,0,0.1,0.1,0.2,0.1l1.7,1.7c0.8,0.8,0.8,2,0,2.8
	l-0.3,0.3c-0.8,0.8-2,0.8-2.8,0l-1.7-1.7c0,0-0.1-0.1-0.1-0.2l-55,55c-1.6,1.6-1.6,4.1,0,5.7l7.4,7.4c5.3-5.3,13.8-5.3,19.1,0
	c5.3,5.3,5.3,13.8,0,19.1l7.4,7.4c1.6,1.6,4.1,1.6,5.7,0l55.1-55.1c-0.1,0-0.1-0.1-0.2-0.1L94,56c-0.8-0.8-0.8-2,0-2.8l0.3-0.3
	c0.8-0.8,2-0.8,2.8,0l1.7,1.7c0,0,0.1,0.1,0.1,0.2l14-14c1.6-1.6,1.6-4.1,0-5.7l-7.4-7.4c-5.3,5.3-13.8,5.3-19.1,0
	C81.1,22.4,81.1,13.9,86.4,8.6z M91.3,47.1c0.8,0.8,0.8,2,0,2.8L91,50.2c-0.8,0.8-2,0.8-2.8,0l-1.7-1.7c-0.8-0.8-0.8-2,0-2.8
	l0.3-0.3c0.8-0.8,2-0.8,2.8,0L91.3,47.1z M83.8,39.5c0.8,0.8,0.8,2,0,2.8l-0.3,0.3c-0.8,0.8-2,0.8-2.8,0L79,40.9
	c-0.8-0.8-0.8-2,0-2.8l0.3-0.3c0.8-0.8,2-0.8,2.8,0L83.8,39.5z M76.2,32c0.8,0.8,0.8,2,0,2.8L76,35.1c-0.8,0.8-2,0.8-2.8,0l-1.7-1.7
	c-0.8-0.8-0.8-2,0-2.8l0.3-0.3c0.8-0.8,2-0.8,2.8,0L76.2,32z M68.7,24.5c0.8,0.8,0.8,2,0,2.8l-0.3,0.3c-0.8,0.8-2,0.8-2.8,0
	l-1.7-1.7c-0.8-0.8-0.8-2,0-2.8l0.3-0.3c0.8-0.8,2-0.8,2.8,0L68.7,24.5z"/>
</svg>
