<svg xmlns="http://www.w3.org/2000/svg" xmlns:xlink="http://www.w3.org/1999/xlink" version="1.1" id="Layer_1" x="0" y="0" viewBox="0 0 112.5 80.6" xml:space="preserve" enable-background="new 0 0 112.5 80.6">
  <style type="text/css">
    
	.st0{opacity:0.2;}
	.st1{opacity:0.2;fill:none;}
	.st2{fill:none;}

  </style>
  <polygon class="st0" points="58.3 14.6 70.3 0 66.2 0 56.2 12.1 "/>
  <polygon class="st0" points="35.9 36.8 35.7 37.1 37.8 39.6 38 39.4 "/>
  <polygon class="st0" points="49.4 25.5 47.3 22.9 47.1 23.2 49.2 25.7 "/>
  <polygon class="st0" points="42.6 33.8 40.5 31.3 40.3 31.5 42.4 34.1 "/>
  <polygon class="st0" points="44.8 31 42.8 28.5 42.6 28.7 44.6 31.3 "/>
  <polygon class="st0" points="47.1 28.3 45 25.7 44.8 26 46.9 28.5 "/>
  <polygon class="st0" points="40.3 36.6 38.2 34.1 38 34.3 40.1 36.8 "/>
  <polygon class="st0" points="54 19.9 51.9 17.4 51.7 17.6 53.8 20.2 "/>
  <polygon class="st0" points="51.7 22.7 49.6 20.2 49.4 20.4 51.5 23 "/>
  <polygon class="st0" points="56.2 17.2 54.2 14.6 54 14.9 56 17.4 "/>
  <polygon class="st0" points="45 36.8 44.8 37.1 46.9 39.6 47.1 39.4 "/>
  <polygon class="st0" points="62.9 20.2 79.4 0 75.3 0 60.8 17.6 "/>
  <polygon class="st0" points="60.6 23 60.8 22.7 58.7 20.2 58.5 20.4 "/>
  <polygon class="st0" points="49.4 36.6 47.3 34.1 47.1 34.3 49.2 36.8 "/>
  <polygon class="st0" points="42.8 39.6 42.6 39.8 44.6 42.4 44.8 42.1 "/>
  <polygon class="st0" points="58.3 25.7 58.5 25.5 56.4 22.9 56.2 23.2 "/>
  <polygon class="st0" points="56.2 28.3 54.2 25.7 54 26 56 28.5 "/>
  <polygon class="st0" points="40.5 42.4 40.3 42.6 42.4 45.2 42.6 44.9 "/>
  <polygon class="st0" points="51.7 33.8 49.6 31.3 49.4 31.5 51.5 34.1 "/>
  <polygon class="st0" points="54 31 51.9 28.5 51.7 28.7 53.8 31.3 "/>
  <polygon class="st0" points="54.2 36.8 54 37.1 56 39.6 56.2 39.4 "/>
  <polygon class="st0" points="67.4 25.7 88.6 0 84.4 0 65.4 23.2 "/>
  <polygon class="st0" points="47.3 45.2 47.1 45.4 49.2 47.9 49.4 47.7 "/>
  <polygon class="st0" points="45 47.9 44.8 48.2 46.9 50.7 47.1 50.5 "/>
  <polygon class="st0" points="60.6 34.1 60.8 33.8 58.7 31.3 58.5 31.5 "/>
  <polygon class="st0" points="65.2 28.5 65.4 28.3 63.3 25.7 63.1 26 "/>
  <polygon class="st0" points="58.3 36.8 58.5 36.6 56.4 34.1 56.2 34.3 "/>
  <polygon class="st0" points="51.9 39.6 51.7 39.8 53.8 42.4 54 42.1 "/>
  <polygon class="st0" points="49.6 42.4 49.4 42.6 51.5 45.2 51.7 44.9 "/>
  <polygon class="st0" points="62.9 31.3 63.1 31 61 28.5 60.8 28.7 "/>
  <polygon class="st0" points="72 31.3 97.7 0 93.5 0 69.9 28.7 "/>
  <polygon class="st0" points="58.5 42.6 60.6 45.2 60.8 44.9 58.7 42.4 "/>
  <polygon class="st0" points="56.2 45.4 58.3 47.9 58.5 47.7 56.4 45.2 "/>
  <polygon class="st0" points="69.7 34.1 69.9 33.8 67.8 31.3 67.6 31.5 "/>
  <polygon class="st0" points="49.6 53.5 49.4 53.7 51.5 56.3 51.7 56 "/>
  <polygon class="st0" points="67.4 36.8 67.6 36.6 65.6 34.1 65.4 34.3 "/>
  <polygon class="st0" points="54.2 47.9 54 48.2 56 50.7 56.2 50.5 "/>
  <polygon class="st0" points="63.1 37.1 65.2 39.6 65.4 39.4 63.3 36.8 "/>
  <polygon class="st0" points="60.8 39.8 62.9 42.4 63.1 42.1 61 39.6 "/>
  <polygon class="st0" points="51.9 50.7 51.7 50.9 53.8 53.5 54 53.2 "/>
  <polygon class="st0" points="51.9 56.3 51.7 56.5 53.8 59 54 58.8 "/>
  <polygon class="st0" points="54.2 53.5 54 53.7 56 56.3 56.2 56 "/>
  <polygon class="st0" points="65.4 39.8 67.4 42.4 67.6 42.1 65.6 39.6 "/>
  <polygon class="st0" points="67.6 37.1 69.7 39.6 69.9 39.4 67.8 36.8 "/>
  <polygon class="st0" points="72 36.8 72.2 36.6 70.1 34.1 69.9 34.3 "/>
  <polygon class="st0" points="63.1 42.6 65.2 45.2 65.4 44.9 63.3 42.4 "/>
  <polygon class="st0" points="56.2 50.9 58.3 53.5 58.5 53.2 56.4 50.7 "/>
  <polygon class="st0" points="74.3 34.1 102.2 0 98.1 0 72.2 31.5 "/>
  <polygon class="st0" points="58.5 48.2 60.6 50.7 60.8 50.5 58.7 47.9 "/>
  <polygon class="st0" points="60.8 45.4 62.9 47.9 63.1 47.7 61 45.2 "/>
  <polygon class="st0" points="65.4 45.4 67.4 47.9 67.6 47.7 65.6 45.2 "/>
  <polygon class="st0" points="58.5 53.7 60.6 56.3 60.8 56 58.7 53.5 "/>
  <polygon class="st0" points="60.8 50.9 62.9 53.5 63.1 53.2 61 50.7 "/>
  <polygon class="st0" points="76.6 36.8 106.8 0 102.6 0 74.5 34.3 "/>
  <polygon class="st0" points="54.2 59 54 59.3 56 61.8 56.2 61.6 "/>
  <polygon class="st0" points="56.2 56.5 58.3 59 58.5 58.8 56.4 56.3 "/>
  <polygon class="st0" points="67.6 42.6 69.7 45.2 69.9 44.9 67.8 42.4 "/>
  <polygon class="st0" points="69.9 39.8 72 42.4 72.2 42.1 70.1 39.6 "/>
  <polygon class="st0" points="72.2 37.1 74.3 39.6 74.5 39.4 72.4 36.8 "/>
  <polygon class="st0" points="63.1 48.2 65.2 50.7 65.4 50.5 63.3 47.9 "/>
  <polygon class="st0" points="65.4 50.9 67.4 53.5 67.6 53.2 65.6 50.7 "/>
  <polygon class="st0" points="56.2 62 58.3 64.6 58.5 64.3 56.4 61.8 "/>
  <polygon class="st0" points="69.9 45.4 72 47.9 72.2 47.7 70.1 45.2 "/>
  <polygon class="st0" points="67.6 48.2 69.7 50.7 69.9 50.5 67.8 47.9 "/>
  <polygon class="st0" points="63.1 53.7 65.2 56.3 65.4 56 63.3 53.5 "/>
  <polygon class="st0" points="72.2 42.6 74.3 45.2 74.5 44.9 72.4 42.4 "/>
  <polygon class="st0" points="58.5 59.3 60.6 61.8 60.8 61.6 58.7 59 "/>
  <polygon class="st0" points="60.8 56.5 62.9 59 63.1 58.8 61 56.3 "/>
  <polygon class="st0" points="107.2 0 76.8 37.1 78.8 39.6 111.4 0 "/>
  <polygon class="st0" points="74.5 39.8 76.6 42.4 76.8 42.1 74.7 39.6 "/>
  <polygon class="st0" points="63.3 25.7 65.4 23.2 65.2 23 63.1 25.5 "/>
  <polygon class="st0" points="61 23 63.1 20.4 62.9 20.2 60.8 22.7 "/>
  <polygon class="st0" points="70.1 34.1 72.2 31.5 72 31.3 69.9 33.8 "/>
  <polygon class="st0" points="58.7 20.2 60.8 17.6 60.6 17.4 58.5 19.9 "/>
  <polygon class="st0" points="65.6 28.5 67.6 26 67.4 25.7 65.4 28.3 "/>
  <polygon class="st0" points="56.2 12.1 46.3 0 42.1 0 54.2 14.6 "/>
  <polygon class="st0" points="56.4 17.4 58.5 14.9 58.3 14.6 56.2 17.2 "/>
  <polygon class="st0" points="72.4 36.8 74.5 34.3 74.3 34.1 72.2 36.6 "/>
  <polygon class="st0" points="67.8 31.3 69.9 28.7 69.7 28.5 67.6 31 "/>
  <polygon class="st0" points="74.5 39.4 74.7 39.6 76.8 37.1 76.6 36.8 "/>
  <polygon class="st0" points="58.3 14.6 56.2 12.1 54.2 14.6 56.2 17.2 "/>
  <polygon class="st0" points="58.5 19.9 60.6 17.4 58.5 14.9 56.4 17.4 "/>
  <polygon class="st0" points="60.8 22.7 62.9 20.2 60.8 17.6 58.7 20.2 "/>
  <polygon class="st0" points="63.1 25.5 65.2 22.9 63.1 20.4 61 22.9 "/>
  <polygon class="st0" points="67.6 31 69.7 28.5 67.6 26 65.6 28.5 "/>
  <polygon class="st0" points="69.9 33.8 72 31.3 69.9 28.7 67.8 31.3 "/>
  <polygon class="st0" points="72.2 36.6 74.3 34.1 72.2 31.5 70.1 34.1 "/>
  <polygon class="st0" points="72.4 36.8 74.5 39.4 76.6 36.8 74.5 34.3 "/>
  <polygon class="st0" points="74.7 39.6 76.8 42.1 78.8 39.6 76.8 37.1 "/>
  <polygon class="st0" points="56 17.4 54 14.9 51.9 17.4 54 19.9 "/>
  <polygon class="st0" points="58.5 25.5 60.6 22.9 58.5 20.4 56.4 22.9 "/>
  <polygon class="st0" points="63.1 31 65.2 28.5 63.1 26 61 28.5 "/>
  <polygon class="st0" points="67.6 36.6 69.7 34.1 67.6 31.5 65.6 34.1 "/>
  <polygon class="st0" points="67.8 36.8 69.9 39.4 72 36.8 69.9 34.3 "/>
  <polygon class="st0" points="70.1 39.6 72.2 42.1 74.3 39.6 72.2 37.1 "/>
  <polygon class="st0" points="72.4 42.4 74.5 44.9 76.6 42.4 74.5 39.8 "/>
  <polygon class="st0" points="67.6 42.1 67.8 42.4 69.9 39.8 69.7 39.6 "/>
  <polygon class="st0" points="51.7 17.6 37.2 0 33 0 49.6 20.2 "/>
  <polygon class="st0" points="69.9 44.9 70.1 45.2 72.2 42.6 72 42.4 "/>
  <polygon class="st0" points="63.3 36.8 65.4 34.3 65.2 34.1 63.1 36.6 "/>
  <polygon class="st0" points="65.4 39.4 65.6 39.6 67.6 37.1 67.4 36.8 "/>
  <polygon class="st0" points="61 34.1 63.1 31.5 62.9 31.3 60.8 33.8 "/>
  <polygon class="st0" points="54 20.4 53.8 20.2 51.7 22.7 51.9 22.9 "/>
  <polygon class="st0" points="58.7 31.3 60.8 28.7 60.6 28.5 58.5 31 "/>
  <polygon class="st0" points="56.4 28.5 58.5 26 58.3 25.7 56.2 28.3 "/>
  <polygon class="st0" points="56.2 23.2 56 22.9 54 25.5 54.2 25.7 "/>
  <polygon class="st0" points="53.8 20.2 51.7 17.6 49.6 20.2 51.7 22.7 "/>
  <polygon class="st0" points="56 22.9 54 20.4 51.9 22.9 54 25.5 "/>
  <polygon class="st0" points="58.3 25.7 56.2 23.2 54.2 25.7 56.2 28.3 "/>
  <polygon class="st0" points="58.5 31 60.6 28.5 58.5 26 56.4 28.5 "/>
  <polygon class="st0" points="60.8 33.8 62.9 31.3 60.8 28.7 58.7 31.3 "/>
  <polygon class="st0" points="63.1 36.6 65.2 34.1 63.1 31.5 61 34.1 "/>
  <polygon class="st0" points="63.3 36.8 65.4 39.4 67.4 36.8 65.4 34.3 "/>
  <polygon class="st0" points="65.6 39.6 67.6 42.1 69.7 39.6 67.6 37.1 "/>
  <polygon class="st0" points="70.1 45.2 72.2 47.7 74.3 45.2 72.2 42.6 "/>
  <polygon class="st0" points="49.4 20.4 32.6 0 28.5 0 47.3 23 "/>
  <polygon class="st0" points="63.1 42.1 63.3 42.4 65.4 39.8 65.2 39.6 "/>
  <polygon class="st0" points="65.4 44.9 65.6 45.2 67.6 42.6 67.4 42.4 "/>
  <polygon class="st0" points="54 26 53.8 25.7 51.7 28.3 51.9 28.5 "/>
  <polygon class="st0" points="51.7 23.2 51.5 22.9 49.4 25.5 49.6 25.7 "/>
  <polygon class="st0" points="60.8 39.4 61 39.6 63.1 37.1 62.9 36.8 "/>
  <polygon class="st0" points="56.4 34.1 58.5 31.5 58.3 31.3 56.2 33.8 "/>
  <polygon class="st0" points="58.7 36.8 60.8 34.3 60.6 34.1 58.5 36.6 "/>
  <polygon class="st0" points="56.2 28.7 56 28.5 54 31 54.2 31.3 "/>
  <polygon class="st0" points="67.6 47.7 67.8 47.9 69.9 45.4 69.7 45.2 "/>
  <polygon class="st0" points="51.5 23 49.4 20.4 47.3 23 49.4 25.5 "/>
  <polygon class="st0" points="53.8 25.7 51.7 23.2 49.6 25.7 51.7 28.3 "/>
  <polygon class="st0" points="58.3 31.3 56.2 28.7 54.2 31.3 56.2 33.8 "/>
  <polygon class="st1" points="58.5 36.6 60.6 34.1 58.5 31.5 56.4 34.1 "/>
  <polygon class="st0" points="58.7 36.8 60.8 39.4 62.9 36.8 60.8 34.3 "/>
  <polygon class="st0" points="61 39.6 63.1 42.1 65.2 39.6 63.1 37.1 "/>
  <polygon class="st0" points="63.3 42.4 65.4 44.9 67.4 42.4 65.4 39.8 "/>
  <polygon class="st0" points="65.6 45.2 67.6 47.7 69.7 45.2 67.6 42.6 "/>
  <polygon class="st0" points="67.8 47.9 69.9 50.5 72 47.9 69.9 45.4 "/>
  <polygon class="st0" points="49.2 25.7 47.1 23.2 45 25.7 47.1 28.3 "/>
  <polygon class="st0" points="53.8 31.3 51.7 28.7 49.6 31.3 51.7 33.8 "/>
  <polygon class="st0" points="54.2 36.8 56.2 39.4 58.3 36.8 56.2 34.3 "/>
  <polygon class="st0" points="58.7 42.4 60.8 44.9 62.9 42.4 60.8 39.8 "/>
  <polygon class="st0" points="61 45.2 63.1 47.7 65.2 45.2 63.1 42.6 "/>
  <polygon class="st0" points="63.3 47.9 65.4 50.5 67.4 47.9 65.4 45.4 "/>
  <polygon class="st0" points="65.6 50.7 67.6 53.2 69.7 50.7 67.6 48.2 "/>
  <polygon class="st0" points="58.5 47.7 58.7 47.9 60.8 45.4 60.6 45.2 "/>
  <polygon class="st0" points="53.8 36.8 51.7 39.4 51.9 39.6 54 37.1 "/>
  <polygon class="st0" points="49.4 31.5 49.2 31.3 47.1 33.8 47.3 34.1 "/>
  <polygon class="st0" points="56.2 44.9 56.4 45.2 58.5 42.6 58.3 42.4 "/>
  <polygon class="st0" points="63.1 53.2 63.3 53.5 65.4 50.9 65.2 50.7 "/>
  <polygon class="st0" points="56 39.6 54 42.1 54.2 42.4 56.2 39.8 "/>
  <polygon class="st0" points="47.1 28.7 46.9 28.5 44.8 31 45 31.3 "/>
  <polygon class="st0" points="60.8 50.5 61 50.7 63.1 48.2 62.9 47.9 "/>
  <polygon class="st0" points="51.7 34.3 51.5 34.1 49.4 36.6 49.6 36.8 "/>
  <polygon class="st0" points="44.8 26 23.5 0 19.4 0 42.8 28.5 "/>
  <polygon class="st0" points="46.9 28.5 44.8 26 42.8 28.5 44.8 31 "/>
  <polygon class="st0" points="49.2 31.3 47.1 28.7 45 31.3 47.1 33.8 "/>
  <polygon class="st0" points="51.5 34.1 49.4 31.5 47.3 34.1 49.4 36.6 "/>
  <polygon class="st0" points="51.7 34.3 49.6 36.8 51.7 39.4 53.8 36.8 "/>
  <polygon class="st0" points="54 37.1 51.9 39.6 54 42.1 56 39.6 "/>
  <polygon class="st0" points="54.2 42.4 56.2 44.9 58.3 42.4 56.2 39.8 "/>
  <polygon class="st0" points="56.4 45.2 58.5 47.7 60.6 45.2 58.5 42.6 "/>
  <polygon class="st1" points="58.7 47.9 60.8 50.5 62.9 47.9 60.8 45.4 "/>
  <polygon class="st0" points="61 50.7 63.1 53.2 65.2 50.7 63.1 48.2 "/>
  <polygon class="st0" points="44.6 31.3 42.6 28.7 40.5 31.3 42.6 33.8 "/>
  <polygon class="st0" points="47.1 34.3 45 36.8 47.1 39.4 49.2 36.8 "/>
  <polygon class="st0" points="51.7 39.8 49.6 42.4 51.7 44.9 53.8 42.4 "/>
  <polygon class="st0" points="54.2 47.9 56.2 50.5 58.3 47.9 56.2 45.4 "/>
  <polygon class="st0" points="56.4 50.7 58.5 53.2 60.6 50.7 58.5 48.2 "/>
  <polygon class="st0" points="61 56.3 63.1 58.8 65.2 56.3 63.1 53.7 "/>
  <polygon class="st0" points="40.3 31.5 14.4 0 10.2 0 38.2 34.1 "/>
  <polygon class="st0" points="53.8 47.9 51.7 50.5 51.9 50.7 54 48.2 "/>
  <polygon class="st0" points="56 50.7 54 53.2 54.2 53.5 56.2 50.9 "/>
  <polygon class="st0" points="44.6 36.8 42.6 39.4 42.8 39.6 44.8 37.1 "/>
  <polygon class="st0" points="42.6 34.3 42.4 34.1 40.3 36.6 40.5 36.8 "/>
  <polygon class="st0" points="58.5 58.8 58.7 59 60.8 56.5 60.6 56.3 "/>
  <polygon class="st0" points="51.5 45.2 49.4 47.7 49.6 47.9 51.7 45.4 "/>
  <polygon class="st0" points="56.2 56 56.4 56.3 58.5 53.7 58.3 53.5 "/>
  <polygon class="st0" points="46.9 39.6 44.8 42.1 45 42.4 47.1 39.8 "/>
  <polygon class="st0" points="49.2 42.4 47.1 44.9 47.3 45.2 49.4 42.6 "/>
  <polygon class="st0" points="42.4 34.1 40.3 31.5 38.2 34.1 40.3 36.6 "/>
  <polygon class="st0" points="42.4 34.1 40.3 31.5 38.2 34.1 40.3 36.6 "/>
  <polygon class="st0" points="42.6 34.3 40.5 36.8 42.6 39.4 44.6 36.8 "/>
  <polygon class="st0" points="42.6 34.3 40.5 36.8 42.6 39.4 44.6 36.8 "/>
  <polygon class="st0" points="44.8 37.1 42.8 39.6 44.8 42.1 46.9 39.6 "/>
  <polygon class="st0" points="44.8 37.1 42.8 39.6 44.8 42.1 46.9 39.6 "/>
  <polygon class="st0" points="47.1 39.8 45 42.4 47.1 44.9 49.2 42.4 "/>
  <polygon class="st0" points="47.1 39.8 45 42.4 47.1 44.9 49.2 42.4 "/>
  <polygon class="st1" points="49.4 42.6 47.3 45.2 49.4 47.7 51.5 45.2 "/>
  <polygon class="st0" points="51.7 45.4 49.6 47.9 51.7 50.5 53.8 47.9 "/>
  <polygon class="st0" points="51.7 45.4 49.6 47.9 51.7 50.5 53.8 47.9 "/>
  <polygon class="st0" points="54 48.2 51.9 50.7 54 53.2 56 50.7 "/>
  <polygon class="st1" points="54 48.2 51.9 50.7 54 53.2 56 50.7 "/>
  <polygon class="st1" points="54.2 53.5 56.2 56 58.3 53.5 56.2 50.9 "/>
  <polygon class="st0" points="56.4 56.3 58.5 58.8 60.6 56.3 58.5 53.7 "/>
  <polygon class="st0" points="56.4 56.3 58.5 58.8 60.6 56.3 58.5 53.7 "/>
  <polygon class="st0" points="58.7 59 60.8 61.6 62.9 59 60.8 56.5 "/>
  <polygon class="st0" points="58.7 59 60.8 61.6 62.9 59 60.8 56.5 "/>
  <polygon class="st0" points="38 34.3 35.9 36.8 38 39.4 40.1 36.8 "/>
  <polygon class="st0" points="42.6 39.8 40.5 42.4 42.6 44.9 44.6 42.4 "/>
  <polygon class="st0" points="47.1 45.4 45 47.9 47.1 50.5 49.2 47.9 "/>
  <polygon class="st0" points="54 53.7 51.9 56.3 54 58.8 56 56.3 "/>
  <polygon class="st0" points="56.4 61.8 58.5 64.3 60.6 61.8 58.5 59.3 "/>
  <polygon class="st0" points="51.5 56.3 49.4 58.8 49.6 59 51.7 56.5 "/>
  <polygon class="st0" points="56 61.8 54 64.3 54.2 64.6 56.2 62 "/>
  <polygon class="st0" points="49.2 53.5 47.1 56 47.3 56.3 49.4 53.7 "/>
  <polygon class="st0" points="53.8 59 51.7 61.6 51.9 61.8 54 59.3 "/>
  <polygon class="st0" points="46.9 50.7 44.8 53.2 45 53.5 47.1 50.9 "/>
  <polygon class="st0" points="40.1 42.4 38 44.9 38.2 45.2 40.3 42.6 "/>
  <polygon class="st0" points="5.3 0 1.1 0 33.6 39.6 35.7 37.1 "/>
  <polygon class="st0" points="37.8 39.6 35.7 42.1 35.9 42.4 38 39.8 "/>
  <polygon class="st0" points="42.4 45.2 40.3 47.7 40.5 47.9 42.6 45.4 "/>
  <polygon class="st0" points="44.6 47.9 42.6 50.5 42.8 50.7 44.8 48.2 "/>
  <polygon class="st0" points="35.7 37.1 33.6 39.6 35.7 42.1 37.8 39.6 "/>
  <polygon class="st0" points="38 39.8 35.9 42.4 38 44.9 40.1 42.4 "/>
  <polygon class="st1" points="40.3 42.6 38.2 45.2 40.3 47.7 42.4 45.2 "/>
  <polygon class="st0" points="42.6 45.4 40.5 47.9 42.6 50.5 44.6 47.9 "/>
  <polygon class="st0" points="44.8 48.2 42.8 50.7 44.8 53.2 46.9 50.7 "/>
  <polygon class="st0" points="47.1 50.9 45 53.5 47.1 56 49.2 53.5 "/>
  <polygon class="st0" points="49.4 53.7 47.3 56.3 49.4 58.8 51.5 56.3 "/>
  <polygon class="st0" points="54 59.3 51.9 61.8 54 64.3 56 61.8 "/>
  <polygon class="st0" points="54.2 64.6 56.2 67.1 58.3 64.6 56.2 62 "/>
  <polygon class="st0" points="35.7 42.1 33.6 39.6 0 80.6 4.2 80.6 "/>
  <polygon class="st0" points="40.3 47.7 38.2 45.2 9.1 80.6 13.3 80.6 "/>
  <polygon class="st0" points="44.8 53.2 42.8 50.7 18.2 80.6 22.4 80.6 "/>
  <polygon class="st0" points="49.4 58.8 47.3 56.3 27.4 80.6 31.5 80.6 "/>
  <polygon class="st0" points="51.7 61.6 49.6 59 31.9 80.6 36.1 80.6 "/>
  <polygon class="st0" points="54 64.3 51.9 61.8 36.5 80.6 40.6 80.6 "/>
  <polygon class="st0" points="56.2 67.1 54.2 64.6 41 80.6 45.2 80.6 "/>
  <polygon class="st0" points="78.8 39.6 76.8 42.1 108.3 80.6 112.5 80.6 "/>
  <polygon class="st0" points="74.3 45.2 72.2 47.7 99.2 80.6 103.4 80.6 "/>
  <polygon class="st0" points="72 47.9 69.9 50.5 94.6 80.6 98.8 80.6 "/>
  <polygon class="st0" points="67.4 53.5 65.4 56 85.5 80.6 89.7 80.6 "/>
  <polygon class="st0" points="62.9 59 60.8 61.6 76.4 80.6 80.6 80.6 "/>
  <g class="st0">
    <polygon class="st2" points="58.3 20.2 58.5 19.9 56.4 17.4 56.2 17.6 "/>
    <polygon class="st2" points="60.6 17.4 74.9 0 70.7 0 58.5 14.9 "/>
    <polygon class="st2" points="47.1 33.8 45 31.3 44.8 31.5 46.9 34.1 "/>
    <polygon class="st2" points="38.2 39.6 38 39.8 40.1 42.4 40.3 42.1 "/>
    <polygon class="st2" points="54 25.5 51.9 22.9 51.7 23.2 53.8 25.7 "/>
    <polygon class="st2" points="51.7 28.3 49.6 25.7 49.4 26 51.5 28.5 "/>
    <polygon class="st2" points="56.2 22.7 54.2 20.2 54 20.4 56 23 "/>
    <polygon class="st2" points="40.5 36.8 40.3 37.1 42.4 39.6 42.6 39.4 "/>
    <polygon class="st2" points="44.8 36.6 42.8 34.1 42.6 34.3 44.6 36.8 "/>
    <polygon class="st2" points="49.4 31 47.3 28.5 47.1 28.7 49.2 31.3 "/>
    <polygon class="st2" points="42.8 45.2 42.6 45.4 44.6 47.9 44.8 47.7 "/>
    <polygon class="st2" points="47.3 39.6 47.1 39.8 49.2 42.4 49.4 42.1 "/>
    <polygon class="st2" points="49.6 36.8 49.4 37.1 51.5 39.6 51.7 39.4 "/>
    <polygon class="st2" points="58.3 31.3 58.5 31 56.4 28.5 56.2 28.7 "/>
    <polygon class="st2" points="60.6 28.5 60.8 28.3 58.7 25.7 58.5 26 "/>
    <polygon class="st2" points="45 42.4 44.8 42.6 46.9 45.2 47.1 44.9 "/>
    <polygon class="st2" points="62.9 25.7 63.1 25.5 61 23 60.8 23.2 "/>
    <polygon class="st2" points="54 36.6 51.9 34.1 51.7 34.3 53.8 36.8 "/>
    <polygon class="st2" points="56.2 33.8 54.2 31.3 54 31.5 56 34.1 "/>
    <polygon class="st2" points="65.2 23 84 0 79.8 0 63.1 20.4 "/>
    <polygon class="st2" points="49.6 47.9 49.4 48.2 51.5 50.7 51.7 50.5 "/>
    <polygon class="st2" points="54.2 42.4 54 42.6 56 45.2 56.2 44.9 "/>
    <polygon class="st2" points="51.9 45.2 51.7 45.4 53.8 47.9 54 47.7 "/>
    <polygon class="st2" points="62.9 36.8 63.1 36.6 61 34.1 60.8 34.3 "/>
    <polygon class="st2" points="67.4 31.3 67.6 31 65.6 28.5 65.4 28.7 "/>
    <polygon class="st2" points="47.3 50.7 47.1 50.9 49.2 53.5 49.4 53.2 "/>
    <polygon class="st2" points="69.7 28.5 93.1 0 89 0 67.6 26 "/>
    <polygon class="st2" points="58.5 37.1 60.6 39.6 60.8 39.4 58.7 36.8 "/>
    <polygon class="st2" points="65.2 34.1 65.4 33.8 63.3 31.3 63.1 31.5 "/>
    <polygon class="st2" points="56.2 39.8 58.3 42.4 58.5 42.1 56.4 39.6 "/>
    <polygon class="st2" points="65.4 28.3 67.4 25.7 65.4 23.2 63.3 25.7 "/>
    <polygon class="st2" points="56.2 17.6 56 17.4 54 19.9 54.2 20.2 "/>
    <polygon class="st2" points="61 28.5 63.1 26 62.9 25.7 60.8 28.3 "/>
    <polygon class="st2" points="63.3 31.3 65.4 28.7 65.2 28.5 63.1 31 "/>
    <polygon class="st2" points="54 14.9 41.8 0 37.6 0 51.9 17.4 "/>
    <polygon class="st2" points="69.9 39.4 70.1 39.6 72.2 37.1 72 36.8 "/>
    <polygon class="st2" points="72.2 42.1 72.4 42.4 74.5 39.8 74.3 39.6 "/>
    <polygon class="st2" points="65.6 34.1 67.6 31.5 67.4 31.3 65.4 33.8 "/>
    <polygon class="st2" points="67.8 36.8 69.9 34.3 69.7 34.1 67.6 36.6 "/>
    <polygon class="st2" points="56.4 23 58.5 20.4 58.3 20.2 56.2 22.7 "/>
    <polygon class="st2" points="58.7 25.7 60.8 23.2 60.6 23 58.5 25.5 "/>
    <polygon class="st2" points="58.3 20.2 56.2 17.6 54.2 20.2 56.2 22.7 "/>
    <polygon class="st2" points="60.8 28.3 62.9 25.7 60.8 23.2 58.7 25.7 "/>
    <polygon class="st2" points="65.4 33.8 67.4 31.3 65.4 28.7 63.3 31.3 "/>
    <polygon class="st2" points="67.8 42.4 69.9 44.9 72 42.4 69.9 39.8 "/>
    <polygon class="st2" points="56 28.5 54 26 51.9 28.5 54 31 "/>
    <polygon class="st2" points="65.4 50.5 65.6 50.7 67.6 48.2 67.4 47.9 "/>
    <polygon class="st2" points="54 31.5 53.8 31.3 51.7 33.8 51.9 34.1 "/>
    <polygon class="st2" points="63.1 47.7 63.3 47.9 65.4 45.4 65.2 45.2 "/>
    <polygon class="st2" points="56.2 39.4 56.4 39.6 58.5 37.1 58.3 36.8 "/>
    <polygon class="st2" points="60.8 44.9 61 45.2 63.1 42.6 62.9 42.4 "/>
    <polygon class="st2" points="58.5 42.1 58.7 42.4 60.8 39.8 60.6 39.6 "/>
    <polygon class="st2" points="56.2 34.3 56 34.1 54 36.6 54.2 36.8 "/>
    <polygon class="st2" points="47.1 23.2 28.1 0 23.9 0 45 25.7 "/>
    <polygon class="st2" points="49.4 26 49.2 25.7 47.1 28.3 47.3 28.5 "/>
    <polygon class="st2" points="51.7 28.7 51.5 28.5 49.4 31 49.6 31.3 "/>
    <polygon class="st2" points="51.5 28.5 49.4 26 47.3 28.5 49.4 31 "/>
    <polygon class="st2" points="56 34.1 54 31.5 51.9 34.1 54 36.6 "/>
    <polygon class="st2" points="56.4 39.6 58.5 42.1 60.6 39.6 58.5 37.1 "/>
    <polygon class="st2" points="63.3 53.5 65.4 56 67.4 53.5 65.4 50.9 "/>
    <polygon class="st2" points="60.8 56 61 56.3 63.1 53.7 62.9 53.5 "/>
    <polygon class="st2" points="47.1 34.3 46.9 34.1 44.8 36.6 45 36.8 "/>
    <polygon class="st2" points="56.2 50.5 56.4 50.7 58.5 48.2 58.3 47.9 "/>
    <polygon class="st2" points="51.5 39.6 49.4 42.1 49.6 42.4 51.7 39.8 "/>
    <polygon class="st2" points="58.5 53.2 58.7 53.5 60.8 50.9 60.6 50.7 "/>
    <polygon class="st2" points="42.6 28.7 19 0 14.8 0 40.5 31.3 "/>
    <polygon class="st2" points="49.2 36.8 47.1 39.4 47.3 39.6 49.4 37.1 "/>
    <polygon class="st2" points="44.8 31.5 44.6 31.3 42.6 33.8 42.8 34.1 "/>
    <polygon class="st2" points="56 45.2 54 47.7 54.2 47.9 56.2 45.4 "/>
    <polygon class="st2" points="53.8 42.4 51.7 44.9 51.9 45.2 54 42.6 "/>
    <polygon class="st2" points="46.9 34.1 44.8 31.5 42.8 34.1 44.8 36.6 "/>
    <polygon class="st2" points="49.4 37.1 47.3 39.6 49.4 42.1 51.5 39.6 "/>
    <polygon class="st2" points="54 42.6 51.9 45.2 54 47.7 56 45.2 "/>
    <polygon class="st2" points="58.7 53.5 60.8 56 62.9 53.5 60.8 50.9 "/>
    <polygon class="st2" points="49.4 42.6 47.3 45.2 49.4 47.7 51.5 45.2 "/>
    <polygon class="st2" points="54.2 53.5 56.2 56 58.3 53.5 56.2 50.9 "/>
    <polygon class="st2" points="44.6 42.4 42.6 44.9 42.8 45.2 44.8 42.6 "/>
    <polygon class="st2" points="40.1 36.8 38 39.4 38.2 39.6 40.3 37.1 "/>
    <polygon class="st2" points="56 56.3 54 58.8 54.2 59 56.2 56.5 "/>
    <polygon class="st2" points="53.8 53.5 51.7 56 51.9 56.3 54 53.7 "/>
    <polygon class="st2" points="56.2 61.6 56.4 61.8 58.5 59.3 58.3 59 "/>
    <polygon class="st2" points="42.4 39.6 40.3 42.1 40.5 42.4 42.6 39.8 "/>
    <polygon class="st2" points="46.9 45.2 44.8 47.7 45 47.9 47.1 45.4 "/>
    <polygon class="st2" points="49.2 47.9 47.1 50.5 47.3 50.7 49.4 48.2 "/>
    <polygon class="st2" points="51.5 50.7 49.4 53.2 49.6 53.5 51.7 50.9 "/>
    <polygon class="st2" points="38 34.3 9.8 0 5.7 0 35.9 36.8 "/>
    <polygon class="st2" points="40.3 37.1 38.2 39.6 40.3 42.1 42.4 39.6 "/>
    <polygon class="st2" points="44.8 42.6 42.8 45.2 44.8 47.7 46.9 45.2 "/>
    <polygon class="st2" points="49.4 48.2 47.3 50.7 49.4 53.2 51.5 50.7 "/>
    <polygon points="51.7 50.9 49.6 53.5 51.7 56 53.8 53.5 "/>
    <polygon class="st2" points="54.2 59 56.2 61.6 58.3 59 56.2 56.5 "/>
    <polygon class="st2" points="51.7 56.5 49.6 59 51.7 61.6 53.8 59 "/>
    <polygon class="st2" points="38 44.9 35.9 42.4 4.6 80.6 8.7 80.6 "/>
    <polygon class="st2" points="42.6 50.5 40.5 47.9 13.7 80.6 17.8 80.6 "/>
    <polygon class="st2" points="47.1 56 45 53.5 22.8 80.6 27 80.6 "/>
    <polygon class="st2" points="76.6 42.4 74.5 44.9 103.8 80.6 107.9 80.6 "/>
    <polygon class="st2" points="69.7 50.7 67.6 53.2 90.1 80.6 94.2 80.6 "/>
    <polygon class="st2" points="65.2 56.3 63.1 58.8 81 80.6 85.1 80.6 "/>
    <polygon class="st2" points="60.6 61.8 58.5 64.3 71.8 80.6 76 80.6 "/>
  </g>
  <polygon class="st0" points="71.5 80.6 58.3 64.6 56.2 67.1 67.3 80.6 "/>
</svg>
