<svg xmlns="http://www.w3.org/2000/svg" viewBox="-248 357 98.4 128.9" fill="#ffffff">
<g>
	<path d="M-215.2,415.2c-0.3,0.3-0.5,0.6-0.6,0.9c-0.1,0.3-0.2,0.8-0.2,1.2s0.1,0.7,0.2,1c0.1,0.3,0.3,0.6,0.5,0.8
		c0.2,0.2,0.4,0.4,0.7,0.5c0.3,0.1,0.5,0.2,0.8,0.2c0.4,0,0.7-0.1,0.9-0.2c0.2-0.1,0.4-0.3,0.6-0.5c0.2-0.2,0.3-0.4,0.4-0.7
		c0.1-0.3,0.2-0.5,0.3-0.8c0.1-0.3,0.2-0.5,0.3-0.8c0.1-0.3,0.2-0.5,0.3-0.7c0.1-0.2,0.3-0.4,0.5-0.5c0.2-0.1,0.4-0.2,0.7-0.2
		s0.5,0,0.8,0.1c0.3,0.1,0.4,0.2,0.6,0.4c0.2,0.2,0.3,0.4,0.4,0.7c0.1,0.3,0.2,0.6,0.2,0.9c0,0.2,0,0.5-0.1,0.6
		c0,0.2-0.1,0.4-0.2,0.5c-0.1,0.1-0.1,0.3-0.2,0.4c-0.1,0.1-0.2,0.2-0.2,0.3c-0.1,0.1-0.1,0.1-0.2,0.2c0,0.1-0.1,0.1-0.1,0.1
		c0,0.1,0,0.1,0.1,0.2l0.3,0.2c0.3-0.3,0.6-0.7,0.8-1.1c0.2-0.4,0.3-0.9,0.3-1.4c0-0.4-0.1-0.8-0.2-1.1c-0.1-0.3-0.3-0.6-0.5-0.8
		c-0.2-0.2-0.5-0.4-0.8-0.5c-0.3-0.1-0.6-0.2-1-0.2c-0.3,0-0.6,0.1-0.9,0.2c-0.2,0.1-0.4,0.3-0.6,0.5c-0.2,0.2-0.3,0.4-0.4,0.7
		c-0.1,0.3-0.2,0.5-0.3,0.8c-0.1,0.3-0.2,0.5-0.3,0.8c-0.1,0.3-0.2,0.5-0.3,0.7c-0.1,0.2-0.3,0.4-0.5,0.5c-0.2,0.1-0.4,0.2-0.7,0.2
		c-0.2,0-0.4,0-0.6-0.1c-0.2-0.1-0.4-0.2-0.5-0.4c-0.2-0.2-0.3-0.4-0.4-0.6c-0.1-0.2-0.1-0.5-0.1-0.8s0-0.6,0.1-0.8
		c0.1-0.2,0.2-0.4,0.2-0.5c0.1-0.1,0.2-0.2,0.2-0.3c0.1-0.1,0.1-0.1,0.1-0.2c0-0.1,0-0.1-0.1-0.2L-215.2,415.2z M-208.1,426.1
		c-0.1,0.3-0.3,0.6-0.6,0.8c-0.2,0.2-0.5,0.4-0.9,0.5c-0.3,0.1-0.7,0.2-1.1,0.2h-5.2v0.6h5.2c0.5,0,0.9-0.1,1.3-0.2
		c0.4-0.1,0.8-0.4,1.1-0.6c0.3-0.3,0.5-0.6,0.7-1c0.2-0.4,0.3-0.8,0.3-1.3s-0.1-0.9-0.3-1.3c-0.2-0.4-0.4-0.7-0.7-1
		c-0.3-0.3-0.6-0.5-1.1-0.6c-0.4-0.1-0.8-0.2-1.3-0.2h-5.2v0.6h5.2c0.4,0,0.8,0.1,1.1,0.2c0.3,0.1,0.6,0.3,0.9,0.5
		c0.2,0.2,0.4,0.5,0.6,0.8c0.1,0.3,0.2,0.7,0.2,1.1C-207.9,425.4-208,425.8-208.1,426.1 M-215.9,431.2h3.9v5.3h-3.9v0.6h8.4v-0.6h-4
		v-5.3h4v-0.6h-8.4V431.2z M-211.1,441.4c-0.1,0.1-0.2,0.2-0.2,0.3c0-0.4-0.1-0.7-0.3-1c-0.1-0.3-0.3-0.5-0.5-0.8
		c-0.2-0.2-0.4-0.4-0.7-0.5s-0.6-0.2-0.9-0.2c-0.7,0-1.3,0.2-1.7,0.7c-0.4,0.5-0.6,1.2-0.6,2.2v2.2h8.4v-0.6h-3.8v-1.1
		c0-0.1,0-0.2,0-0.2c0-0.1,0-0.1,0-0.1s0-0.1,0.1-0.1l0.1-0.1l3.4-2.7c0.1,0,0.1-0.1,0.1-0.1s0-0.1,0-0.2v-0.5L-211.1,441.4z
		 M-211.7,443.7h-3.7v-1.5c0-0.8,0.1-1.3,0.4-1.7c0.3-0.4,0.7-0.6,1.3-0.6c0.3,0,0.6,0.1,0.8,0.2c0.2,0.1,0.4,0.3,0.6,0.5
		c0.2,0.2,0.3,0.5,0.4,0.8c0.1,0.3,0.1,0.6,0.1,1v1.3H-211.7z M-215.9,449.1v0.6l8.4,3.4v-0.5c0-0.1,0-0.1,0-0.1l-0.1-0.1l-2.4-1
		v-4.1l2.4-1c0,0,0.1,0,0.1-0.1v-0.1v-0.5L-215.9,449.1z M-210.5,451.3l-4.2-1.7c-0.1,0-0.2-0.1-0.2-0.1c-0.1,0-0.2-0.1-0.3-0.1
		c0.2-0.1,0.4-0.1,0.5-0.2l4.3-1.7v3.8H-210.5z M-215.9,456.9v0.6l8.4,3.4v-0.5c0-0.1,0-0.1,0-0.1l-0.1-0.1l-2.4-1v-4.1l2.4-1
		c0,0,0.1,0,0.1-0.1v-0.1v-0.5L-215.9,456.9z M-210.5,459.1l-4.2-1.7c-0.1,0-0.2-0.1-0.2-0.1c-0.1,0-0.2-0.1-0.3-0.1
		c0.2-0.1,0.4-0.1,0.5-0.2l4.3-1.7v3.8H-210.5z M-215.9,465.8h8.4v-0.6h-8.4V465.8z"/>
	<path d="M-230.2,416.1h7.1c0.1,0,0.2,0,0.3,0l-7.3,5.5l-0.1,0.1v0.1v0.3h8.4v-0.5h-7.1c-0.1,0-0.2,0-0.3,0l7.3-5.5l0.1-0.1v-0.1
		v-0.3h-8.4V416.1z M-224.4,424.9c0.5,0.2,0.9,0.4,1.2,0.7c0.3,0.3,0.6,0.7,0.7,1.1c0.2,0.4,0.3,0.9,0.3,1.4s-0.1,1-0.3,1.4
		c-0.2,0.4-0.4,0.8-0.7,1.1c-0.3,0.3-0.7,0.5-1.2,0.7c-0.5,0.2-1,0.2-1.6,0.2s-1.1-0.1-1.6-0.2c-0.5-0.2-0.9-0.4-1.2-0.7
		c-0.3-0.3-0.6-0.7-0.7-1.1c-0.2-0.4-0.3-0.9-0.3-1.4s0.1-1,0.3-1.4s0.4-0.8,0.7-1.1c0.3-0.3,0.7-0.5,1.2-0.7c0.5-0.2,1-0.2,1.6-0.2
		C-225.4,424.6-224.9,424.7-224.4,424.9 M-227.7,424.3c-0.5,0.2-1,0.5-1.4,0.8c-0.4,0.4-0.7,0.8-0.9,1.3s-0.3,1-0.3,1.6
		s0.1,1.1,0.3,1.6s0.5,0.9,0.9,1.3c0.4,0.4,0.8,0.6,1.4,0.8c0.5,0.2,1.1,0.3,1.8,0.3c0.6,0,1.2-0.1,1.8-0.3c0.5-0.2,1-0.5,1.4-0.8
		c0.4-0.3,0.7-0.8,0.9-1.3s0.3-1,0.3-1.6s-0.1-1.1-0.3-1.6s-0.5-0.9-0.9-1.3c-0.4-0.4-0.8-0.6-1.4-0.8c-0.6-0.2-1.2-0.3-1.9-0.3
		C-226.6,424-227.2,424.1-227.7,424.3 M-230.2,434.6h8.4V434h-8.4V434.6z M-230.2,436v6.5h0.5v-3h7.9v-0.6h-7.9v-3h-0.5V436z
		 M-230.2,445.5v0.6l8.4,3.4V449c0-0.1,0-0.1,0-0.1l-0.1-0.1l-2.4-1v-4.1l2.4-1c0,0,0.1,0,0.1-0.1v-0.1V442L-230.2,445.5z
		 M-224.8,447.7l-4.2-1.7c-0.1,0-0.1-0.1-0.2-0.1c-0.1,0-0.2-0.1-0.3-0.1c0.2-0.1,0.4-0.1,0.5-0.2l4.3-1.7v3.8H-224.8z
		 M-230.2,449.7c0,0.1,0,0.1,0,0.1l0.1,0.1l7,2.9c0.1,0,0.2,0.1,0.3,0.1c0.1,0,0.2,0.1,0.3,0.1c-0.1,0-0.2,0.1-0.3,0.1
		c-0.1,0-0.2,0.1-0.3,0.1l-6.9,2.8c0,0-0.1,0-0.1,0.1v0.1v0.5l8.4-3.5v-0.5l-8.4-3.5L-230.2,449.7L-230.2,449.7z M-224.4,458.3
		c0.5,0.2,0.9,0.4,1.2,0.7c0.3,0.3,0.6,0.7,0.7,1.1c0.2,0.4,0.3,0.9,0.3,1.4s-0.1,1-0.3,1.4s-0.4,0.8-0.7,1.1
		c-0.3,0.3-0.7,0.5-1.2,0.7c-0.5,0.2-1,0.2-1.6,0.2s-1.1-0.1-1.6-0.2c-0.5-0.2-0.9-0.4-1.2-0.7c-0.3-0.3-0.6-0.7-0.7-1.1
		c-0.2-0.4-0.3-0.9-0.3-1.4s0.1-1,0.3-1.4c0.2-0.4,0.4-0.8,0.7-1.1c0.3-0.3,0.7-0.5,1.2-0.7c0.5-0.2,1-0.2,1.6-0.2
		C-225.4,458-224.9,458.1-224.4,458.3 M-227.7,457.7c-0.5,0.2-1,0.5-1.4,0.8c-0.4,0.4-0.7,0.8-0.9,1.3s-0.3,1-0.3,1.6
		s0.1,1.1,0.3,1.6s0.5,0.9,0.9,1.3c0.4,0.4,0.8,0.6,1.4,0.8c0.5,0.2,1.1,0.3,1.8,0.3c0.6,0,1.2-0.1,1.8-0.3c0.5-0.2,1-0.5,1.4-0.8
		c0.4-0.4,0.7-0.8,0.9-1.3s0.3-1,0.3-1.6s-0.1-1.1-0.3-1.6s-0.5-0.9-0.9-1.3c-0.4-0.4-0.8-0.6-1.4-0.8c-0.5-0.2-1.1-0.3-1.8-0.3
		C-226.6,457.4-227.2,457.5-227.7,457.7 M-230.2,467.9h7.1c0.1,0,0.2,0,0.3,0l-7.3,5.5l-0.1,0.1v0.1v0.3h8.4v-0.5h-7.1
		c-0.1,0-0.2,0-0.3,0l7.3-5.5l0.1-0.1v-0.1v-0.3h-8.4V467.9z M-230.2,476.9h7.1c0.1,0,0.2,0,0.3,0l-7.3,5.5l-0.1,0.1v0.1v0.3h8.4
		v-0.5h-7.1c-0.1,0-0.2,0-0.3,0l7.3-5.5l0.1-0.1v-0.1v-0.3h-8.4V476.9z M-230.2,485.9h8.4v-0.6h-8.4V485.9z"/>
	<path d="M-239.7,417.4c-0.1,0.1-0.2,0.2-0.2,0.3c0-0.4-0.1-0.7-0.3-1c-0.1-0.3-0.3-0.5-0.5-0.8c-0.2-0.2-0.4-0.4-0.7-0.5
		c-0.3-0.1-0.6-0.2-0.9-0.2c-0.7,0-1.3,0.2-1.7,0.7s-0.6,1.2-0.6,2.2v2.2h8.6v-0.6h-3.8v-1.1c0-0.1,0-0.2,0-0.2c0-0.1,0-0.1,0-0.1
		s0-0.1,0.1-0.1l0.1-0.1l3.4-2.7c0.1,0,0.1-0.1,0.1-0.1s0-0.1,0-0.2v-0.5L-239.7,417.4z M-240.3,419.7h-3.7v-1.5
		c0-0.7,0.1-1.3,0.4-1.7c0.3-0.4,0.7-0.6,1.3-0.6c0.3,0,0.6,0.1,0.8,0.2c0.2,0.1,0.4,0.3,0.6,0.5c0.2,0.2,0.3,0.5,0.4,0.8
		c0.1,0.3,0.1,0.6,0.1,1L-240.3,419.7L-240.3,419.7z M-238.7,423.1c0.5,0.2,0.9,0.4,1.2,0.7s0.6,0.7,0.7,1.1
		c0.2,0.4,0.3,0.9,0.3,1.4s-0.1,1-0.3,1.4s-0.4,0.8-0.7,1.1s-0.7,0.5-1.2,0.7c-0.5,0.2-1,0.2-1.6,0.2c-0.6,0-1.1-0.1-1.6-0.2
		c-0.4-0.3-0.8-0.5-1.1-0.8c-0.3-0.3-0.6-0.7-0.7-1.1c-0.2-0.4-0.3-0.9-0.3-1.4s0.1-1,0.3-1.4s0.4-0.8,0.7-1.1s0.7-0.5,1.2-0.7
		c0.5-0.2,1-0.2,1.6-0.2C-239.7,422.9-239.1,422.9-238.7,423.1 M-242,422.5c-0.5,0.2-1,0.5-1.4,0.8c-0.4,0.4-0.7,0.8-0.9,1.3
		s-0.3,1-0.3,1.6c0,0.6,0.1,1.1,0.3,1.6s0.5,0.9,0.9,1.3c0.4,0.4,0.9,0.7,1.4,0.9c0.5,0.2,1.1,0.3,1.8,0.3s1.2-0.1,1.8-0.3
		c0.5-0.2,1-0.5,1.4-0.8c0.4-0.4,0.7-0.8,0.9-1.3c0.2-0.5,0.3-1,0.3-1.6s-0.1-1.1-0.3-1.6c-0.2-0.5-0.5-0.9-0.9-1.3
		c-0.4-0.4-0.8-0.6-1.4-0.8c-0.5-0.2-1.1-0.3-1.8-0.3C-240.9,422.2-241.5,422.3-242,422.5 M-244,431.3h-0.5v5h8.5v-0.6h-3.9v-3.8
		h-0.5v3.8h-3.6V431.3z M-239.7,443.9c-0.1,0.1-0.2,0.1-0.2,0.2c0-0.4-0.1-0.7-0.3-1c-0.1-0.3-0.3-0.5-0.5-0.8
		c-0.2-0.2-0.4-0.4-0.7-0.5c-0.3-0.1-0.6-0.2-0.9-0.2c-0.7,0-1.3,0.2-1.7,0.7s-0.6,1.2-0.6,2.2v2.2h8.6v-0.6h-3.8V445
		c0-0.1,0-0.2,0-0.2c0-0.1,0-0.1,0-0.1s0-0.1,0.1-0.1l0.1-0.1l3.4-2.7c0.1,0,0.1-0.1,0.1-0.1s0-0.1,0-0.2V441L-239.7,443.9z
		 M-240.3,446.2h-3.7v-1.5c0-0.8,0.1-1.3,0.4-1.7c0.3-0.4,0.7-0.6,1.3-0.6c0.3,0,0.6,0.1,0.8,0.2c0.3,0,0.5,0.2,0.7,0.4
		c0.2,0.2,0.3,0.5,0.4,0.8c0.1,0.3,0.1,0.6,0.1,1V446.2z M-236.5,453.1h-3.6v-3.7h-0.5v3.7h-3.4v-4.4h-0.5v5h8.5v-5h-0.5V453.1z
		 M-244.5,455.1v6.5h0.5v-3h8V458h-7.9v-3L-244.5,455.1L-244.5,455.1z M-244.5,463.6h7.1c0.1,0,0.2,0,0.3,0l-7.2,5.4l-0.1,0.1v0.1
		v0.3h8.4V469h-7.1c-0.1,0-0.2,0-0.3,0l7.3-5.5l0.1-0.1v-0.1V463h-8.5V463.6z M-236.5,475.9h-3.6v-3.7h-0.5v3.7h-3.4v-4.4h-0.5v5
		h8.5v-5h-0.5V475.9z M-237.4,478.5L-237.4,478.5c0.2,0.2,0.3,0.4,0.4,0.6c0.1,0.2,0.2,0.4,0.3,0.6c0.1,0.2,0.1,0.4,0.2,0.7
		c0,0.2,0.1,0.5,0.1,0.8c0,0.5-0.1,0.9-0.3,1.3c-0.2,0.4-0.4,0.8-0.7,1.1c-0.3,0.3-0.7,0.5-1.2,0.7c-0.5,0.2-1,0.3-1.6,0.3
		c-0.6,0-1.1-0.1-1.6-0.3s-0.9-0.4-1.2-0.7c-0.3-0.3-0.6-0.7-0.8-1.1c-0.1-0.5-0.2-1-0.2-1.5c0-0.4,0-0.7,0.1-1
		c0.1-0.3,0.2-0.5,0.3-0.7c0.1-0.2,0.2-0.3,0.3-0.4c0.1-0.1,0.1-0.2,0.1-0.2c0-0.1,0-0.1-0.1-0.1l-0.3-0.2c-0.3,0.4-0.6,0.8-0.8,1.2
		c-0.2,0.4-0.3,1-0.3,1.5c0,0.6,0.1,1.2,0.3,1.7c0.2,0.5,0.5,0.9,0.9,1.3c0.4,0.4,0.8,0.6,1.4,0.8c0.5,0.2,1.1,0.3,1.7,0.3
		c0.7,0,1.2-0.1,1.8-0.3c0.5-0.2,1-0.5,1.4-0.8c0.4-0.3,0.7-0.8,0.9-1.3s0.3-1,0.3-1.6c0-0.3,0-0.7-0.1-1c-0.1-0.3-0.1-0.6-0.2-0.8
		c-0.1-0.2-0.2-0.5-0.4-0.7c-0.1-0.2-0.3-0.4-0.5-0.6l-0.3,0.2C-237.4,478.4-237.5,478.4-237.4,478.5
		C-237.5,478.5-237.5,478.5-237.4,478.5"/>
</g>
<g>
	<path d="M-244.5,360.1h91.3V397h-91.3V360.1z M-248,400.2h98.4V357H-248V400.2z"/>
	<path d="M-220.8,383.7c0.1,0,0.2,0,0.4,0.1c0.2,0.1,0.2,0.1,0.3,0.2l2,2.1c-0.9,1.1-1.9,2-3.2,2.6s-2.8,0.9-4.6,0.9
		c-1.6,0-3.1-0.3-4.4-0.8c-1.3-0.6-2.4-1.3-3.3-2.3c-0.9-1-1.6-2.1-2.1-3.5c-0.5-1.3-0.7-2.8-0.7-4.4c0-1.6,0.3-3.1,0.8-4.4
		c0.5-1.3,1.2-2.5,2.2-3.5c0.9-1,2.1-1.7,3.4-2.3c1.3-0.5,2.8-0.8,4.3-0.8c0.8,0,1.6,0.1,2.3,0.2c0.7,0.1,1.4,0.3,2,0.6
		c0.6,0.3,1.2,0.6,1.7,0.9c0.5,0.4,1,0.7,1.4,1.1l-1.7,2.3c-0.1,0.1-0.2,0.3-0.4,0.4c-0.1,0.1-0.4,0.2-0.6,0.2s-0.3,0-0.5-0.1
		s-0.3-0.2-0.5-0.3s-0.4-0.2-0.6-0.4c-0.2-0.1-0.5-0.3-0.8-0.4c-0.3-0.1-0.6-0.2-1-0.3c-0.4-0.1-0.8-0.1-1.4-0.1
		c-0.8,0-1.6,0.2-2.3,0.5c-0.7,0.3-1.3,0.7-1.8,1.3c-0.5,0.6-0.9,1.3-1.1,2.1c-0.3,0.8-0.4,1.8-0.4,2.9c0,1.1,0.1,2.1,0.4,2.9
		c0.3,0.9,0.7,1.6,1.2,2.2c0.5,0.6,1.1,1,1.8,1.3c0.7,0.3,1.4,0.5,2.2,0.5c0.5,0,0.9,0,1.2-0.1c0.4,0,0.7-0.1,1-0.2
		c0.3-0.1,0.6-0.2,0.9-0.4c0.3-0.2,0.6-0.4,0.9-0.7c0.1-0.1,0.2-0.2,0.4-0.2C-221.1,383.7-220.9,383.7-220.8,383.7"/>
	<polygon points="-207.5,371.6 -207.5,377.1 -200.2,377.1 -200.2,380.9 -207.5,380.9 -207.5,389.2 -212.5,389.2 -212.5,367.8 
		-198.7,367.8 -198.7,371.6 	"/>
	<rect x="-192.4" y="367.8" width="5" height="21.4"/>
	<path d="M-168.5,381l-2-5.9c-0.1-0.4-0.3-0.8-0.5-1.3s-0.3-1.1-0.5-1.6c-0.1,0.6-0.3,1.2-0.5,1.7s-0.3,1-0.5,1.3l-2,5.8H-168.5z
		 M-160.6,389.2h-3.9c-0.4,0-0.8-0.1-1-0.3c-0.3-0.2-0.5-0.5-0.6-0.8l-1.3-3.7h-8.1l-1.3,3.7c-0.1,0.3-0.3,0.5-0.6,0.7
		c-0.3,0.2-0.6,0.3-1,0.3h-3.9l8.3-21.3h5.1L-160.6,389.2z"/>
</g>
</svg>
